<svg width="24" height="24" viewBox="0 0 24 24" fill="none" xmlns="http://www.w3.org/2000/svg">
<path d="M15.7166 9.20224H8.28341C7.1163 9.15675 6.01213 8.66112 5.20246 7.81929C4.3928 6.97745 3.94055 5.85482 3.94055 4.68682C3.94055 3.51881 4.3928 2.39618 5.20246 1.55434C6.01213 0.71251 7.1163 0.216877 8.28341 0.171387H15.7166C16.8837 0.216877 17.9878 0.71251 18.7975 1.55434C19.6072 2.39618 20.0594 3.51881 20.0594 4.68682C20.0594 5.85482 19.6072 6.97745 18.7975 7.81929C17.9878 8.66112 16.8837 9.15675 15.7166 9.20224ZM8.28341 1.88567C7.56447 1.92125 6.88674 2.2319 6.39049 2.75332C5.89424 3.27474 5.61748 3.967 5.61748 4.68682C5.61748 5.40663 5.89424 6.09889 6.39049 6.62031C6.88674 7.14173 7.56447 7.45238 8.28341 7.48796H15.7166C16.4355 7.45238 17.1132 7.14173 17.6095 6.62031C18.1057 6.09889 18.3825 5.40663 18.3825 4.68682C18.3825 3.967 18.1057 3.27474 17.6095 2.75332C17.1132 2.2319 16.4355 1.92125 15.7166 1.88567H8.28341Z" fill="#2196F3"/>
<path d="M11.9451 16.512H8.28342C7.08677 16.512 5.93912 16.0367 5.09296 15.1905C4.24679 14.3443 3.77142 13.1967 3.77142 12C3.77142 10.8034 4.24679 9.65574 5.09296 8.80957C5.93912 7.96341 7.08677 7.48804 8.28342 7.48804C8.51075 7.48804 8.72877 7.57834 8.88951 7.73909C9.05026 7.89983 9.14057 8.11785 9.14057 8.34518C9.14057 8.57251 9.05026 8.79053 8.88951 8.95127C8.72877 9.11202 8.51075 9.20232 8.28342 9.20232C7.54142 9.20232 6.82981 9.49708 6.30514 10.0218C5.78047 10.5464 5.48571 11.258 5.48571 12C5.48571 12.742 5.78047 13.4536 6.30514 13.9783C6.82981 14.503 7.54142 14.7978 8.28342 14.7978H11.088V8.34518C11.088 8.11785 11.1783 7.89983 11.339 7.73909C11.4998 7.57834 11.7178 7.48804 11.9451 7.48804C12.1725 7.48804 12.3905 7.57834 12.5512 7.73909C12.712 7.89983 12.8023 8.11785 12.8023 8.34518V15.6549C12.8023 15.8822 12.712 16.1002 12.5512 16.261C12.3905 16.4217 12.1725 16.512 11.9451 16.512Z" fill="#2196F3"/>
<path d="M8.33829 23.8286C7.73051 23.8523 7.1242 23.753 6.5557 23.5368C5.9872 23.3205 5.4682 22.9917 5.02982 22.5701C4.59143 22.1485 4.24268 21.6427 4.00445 21.083C3.76622 20.5234 3.64343 19.9214 3.64343 19.3132C3.64343 18.7049 3.76622 18.1029 4.00445 17.5433C4.24268 16.9837 4.59143 16.4779 5.02982 16.0562C5.4682 15.6346 5.9872 15.3058 6.5557 15.0896C7.1242 14.8733 7.73051 14.7741 8.33829 14.7977C8.56561 14.7977 8.78363 14.888 8.94438 15.0488C9.10512 15.2095 9.19543 15.4276 9.19543 15.6549C9.19543 15.8822 9.10512 16.1002 8.94438 16.261C8.78363 16.4217 8.56561 16.512 8.33829 16.512C7.7833 16.5107 7.2404 16.674 6.77829 16.9813C6.31618 17.2887 5.95564 17.7262 5.74232 18.2386C5.52899 18.7509 5.47247 19.315 5.57991 19.8595C5.68735 20.404 5.95392 20.9044 6.34587 21.2973C6.73782 21.6902 7.23754 21.958 7.78176 22.0668C8.32598 22.1755 8.89023 22.1204 9.4031 21.9083C9.91597 21.6963 10.3544 21.3368 10.6629 20.8754C10.9713 20.4141 11.136 19.8716 11.136 19.3166V15.6549C11.136 15.4276 11.2263 15.2095 11.3871 15.0488C11.5478 14.888 11.7658 14.7977 11.9931 14.7977C12.2205 14.7977 12.4385 14.888 12.5992 15.0488C12.76 15.2095 12.8503 15.4276 12.8503 15.6549V19.3166C12.8485 20.5127 12.3725 21.6593 11.5267 22.5051C10.681 23.3508 9.53439 23.8268 8.33829 23.8286Z" fill="#2196F3"/>
<path d="M15.6548 16.6286C14.7502 16.6286 13.866 16.3604 13.1138 15.8578C12.3617 15.3553 11.7754 14.6409 11.4293 13.8052C11.0831 12.9695 10.9925 12.0498 11.169 11.1626C11.3455 10.2754 11.7811 9.46046 12.4207 8.82081C13.0604 8.18117 13.8753 7.74556 14.7625 7.56909C15.6498 7.39261 16.5694 7.48318 17.4051 7.82936C18.2409 8.17553 18.9552 8.76175 19.4577 9.5139C19.9603 10.266 20.2285 11.1503 20.2285 12.0549C20.2285 12.6555 20.1102 13.2503 19.8804 13.8052C19.6505 14.3601 19.3136 14.8643 18.8889 15.289C18.4642 15.7137 17.96 16.0506 17.4051 16.2805C16.8502 16.5103 16.2555 16.6286 15.6548 16.6286ZM15.6548 9.20235C15.089 9.20235 14.5359 9.37022 14.0655 9.68473C13.5951 9.99923 13.2286 10.4462 13.0124 10.9691C12.7962 11.492 12.74 12.0673 12.8509 12.6221C12.9617 13.177 13.2348 13.6865 13.6353 14.0861C14.0359 14.4857 14.5461 14.7575 15.1012 14.8671C15.6563 14.9766 16.2315 14.919 16.7538 14.7016C17.2762 14.4841 17.7223 14.1165 18.0357 13.6454C18.3491 13.1743 18.5156 12.6207 18.5143 12.0549C18.5124 11.2977 18.2104 10.5722 17.6743 10.0374C17.1383 9.50266 16.412 9.20234 15.6548 9.20235Z" fill="#2196F3"/>
<path d="M11.9452 9.20224C11.8326 9.20135 11.7213 9.17829 11.6177 9.13438C11.514 9.09048 11.42 9.02658 11.3411 8.94635C11.2621 8.86612 11.1997 8.77112 11.1575 8.66678C11.1152 8.56245 11.094 8.45081 11.0949 8.33824L11.1497 1.02167C11.1515 0.796717 11.2417 0.581483 11.4008 0.422411C11.5598 0.263338 11.7751 0.173179 12 0.171387C12.1126 0.172284 12.2239 0.195344 12.3275 0.23925C12.4312 0.283156 12.5252 0.347048 12.6041 0.427279C12.6831 0.507509 12.7454 0.602507 12.7877 0.706846C12.8299 0.811186 12.8512 0.922824 12.8503 1.03539L12.7954 8.35196C12.7919 8.57637 12.7012 8.79059 12.5425 8.94929C12.3838 9.10799 12.1696 9.19871 11.9452 9.20224Z" fill="#2196F3"/>
</svg>
