<svg width="24" height="24" viewBox="0 0 24 24" fill="none" xmlns="http://www.w3.org/2000/svg">
<path d="M22.2 11.6C17.2 8.8 7.2 3.3 2.2 0.6C2.2 0.5 2.1 0.5 2 0.5C1.7 0.5 1.5 0.7 1.5 1V23C1.5 23.3 1.7 23.5 2 23.5C2.1 23.5 2.2 23.5 2.2 23.4C7.2 20.7 17.2 15.2 22.2 12.4C22.4 12.3 22.5 12 22.4 11.8C22.4 11.7 22.3 11.6 22.2 11.6Z" stroke="#2196F3" stroke-linecap="round" stroke-linejoin="round"/>
<path d="M2.20001 0.599976L16.9 15.4M2.20001 23.4L16.9 8.59998" stroke="#2196F3" stroke-linejoin="round"/>
</svg>
